<svg width="169" height="32" viewBox="0 0 169 32" fill="none" xmlns="http://www.w3.org/2000/svg">
<path d="M0.0227932 31.9C0.00178564 31.8447 -0.00615685 24.6537 0.00515022 15.92L0.0257338 0.0406182L12.1177 0.0203091L24.2096 0L24.1886 3.02778L24.1676 6.05555L15.8454 6.07598L7.52321 6.09642L7.54412 9.44435L7.56507 12.7923L14.9039 12.8324L22.2427 12.8725L22.2637 15.7543C22.2802 18.0065 22.2628 18.6501 22.1835 18.7004C22.1278 18.7357 18.8069 18.7652 14.8036 18.7659L7.52496 18.7671V22.3356V25.9041L16.1671 25.9245L24.8092 25.9449V28.9524V31.9598L12.4351 31.9802C2.578 31.9963 0.0532345 31.98 0.0228024 31.9L0.0227932 31.9ZM30.9937 31.8734C30.92 31.6812 30.9377 0.216385 31.0116 0.0999706C31.062 0.0205667 31.8738 0.00338085 34.8 0.0197703L38.5244 0.0406228L38.5446 12.9322L38.5649 25.8239L46.5251 25.8443L54.4852 25.8647V28.9123V31.9599L42.7639 31.9802C32.1273 31.9986 31.038 31.9887 30.9937 31.8734L30.9937 31.8734ZM58.7334 31.9005C58.7123 31.845 58.7043 24.6538 58.7156 15.9201L58.7361 0.0406436H62.4657H66.1953L66.2158 7.28441C66.2319 13.0152 66.2571 14.5228 66.3361 14.5023C66.391 14.4881 66.7788 14.1149 67.1978 13.6729C67.6169 13.2309 68.8801 11.8993 70.005 10.7138C71.1299 9.52831 72.5195 8.06128 73.0929 7.45373C73.6664 6.84618 75.4891 4.92093 77.1433 3.1754L80.151 0.00170669L84.3017 0.00110079C87.2596 0.000797674 88.4523 0.0258035 88.4523 0.0884725C88.4523 0.190592 88.729 -0.112098 83.3592 5.65961C81.0654 8.12519 78.987 10.3597 78.7405 10.6253C78.4941 10.8908 77.6699 11.7758 76.9088 12.5918C76.1478 13.4078 75.4953 14.1303 75.459 14.1974C75.3944 14.3165 76.536 15.7915 82.9062 23.8197C87.8607 30.0637 89.2543 31.855 89.2114 31.9243C89.1831 31.9702 87.4676 32 84.8518 32H80.539L78.1014 29.0126C76.7607 27.3695 74.4955 24.5906 73.0676 22.8372C71.6398 21.0839 70.4297 19.6497 70.3786 19.6502C70.3275 19.6508 69.3834 20.5957 68.2806 21.7504L66.2755 23.8499L66.2354 27.9049L66.1953 31.9599L62.4836 31.9808C59.5569 31.9972 58.7637 31.9801 58.7334 31.9006L58.7334 31.9005ZM92.8324 31.8739C92.7585 31.6815 92.776 0.216614 92.85 0.0999937C92.9004 0.0205898 93.7122 0.00340398 96.6385 0.0197934L100.363 0.0406483V16.0003V31.9599L96.6221 31.9807C93.2631 31.9994 92.8764 31.9885 92.8324 31.8739L92.8324 31.8739ZM116.016 31.9465C115.987 31.9171 115.963 29.3425 115.963 26.2252V20.5573L114.689 18.4392C113.989 17.2742 112.047 14.0474 110.373 11.2685C108.699 8.48963 106.511 4.85682 105.51 3.19561C104.51 1.5344 103.691 0.135592 103.691 0.087145C103.691 0.0240638 104.823 0.00496308 107.678 0.0198581L111.665 0.0406506L115.839 6.99518C118.135 10.8202 120.046 13.9399 120.086 13.928C120.146 13.9103 125.218 5.536 127.853 1.10329L128.509 0.000552707H132.181C135.2 0.000552707 135.854 0.0197097 135.854 0.108153C135.854 0.167336 135.432 0.916191 134.916 1.77228C132.565 5.67463 128.865 11.8189 126.341 16.014L123.582 20.5991V26.1727C123.582 29.2382 123.56 31.8034 123.534 31.8731C123.49 31.9863 123.084 32 119.777 32C117.738 32 116.046 31.9759 116.016 31.9465V31.9465ZM133.009 31.9238C132.982 31.8811 132.997 31.7815 133.042 31.7025C133.135 31.5377 133.688 30.3179 133.688 30.277C133.688 30.2621 133.811 29.985 133.96 29.6613C134.11 29.3376 134.673 28.0803 135.212 26.8673C135.751 25.6542 136.314 24.3969 136.464 24.0732C136.614 23.7495 136.736 23.4723 136.736 23.4572C136.736 23.4422 136.84 23.2018 136.968 22.923C137.096 22.6443 137.28 22.2358 137.378 22.0152C137.476 21.7947 137.621 21.4699 137.699 21.2934C137.778 21.117 138.211 20.1426 138.661 19.128C139.111 18.1135 139.602 17.0186 139.752 16.6949C139.902 16.3711 140.024 16.094 140.024 16.0789C140.024 16.0639 140.129 15.8235 140.256 15.5447C140.384 15.266 140.56 14.8755 140.648 14.677C140.736 14.4785 140.881 14.1537 140.97 13.9552C141.058 13.7567 141.662 12.4033 142.311 10.9477C142.959 9.49212 143.559 8.14778 143.642 7.96031C143.726 7.77285 143.87 7.44804 143.963 7.23852C144.056 7.029 144.236 6.6295 144.364 6.35074C144.492 6.07197 144.596 5.83159 144.596 5.81654C144.596 5.80151 144.719 5.52432 144.869 5.20059C145.019 4.87687 145.51 3.78194 145.96 2.76742C146.411 1.7529 146.872 0.715324 146.985 0.461695L147.19 0.000548082H150.907H154.624L154.814 0.421595C154.918 0.653169 155.68 2.35841 156.506 4.211C157.333 6.06361 158.099 7.77786 158.209 8.02046C158.319 8.26306 158.554 8.78636 158.731 9.18335C158.908 9.58034 159.143 10.1036 159.253 10.3462C159.363 10.5888 159.596 11.1121 159.771 11.5091C160.155 12.3809 160.216 12.5159 160.632 13.4218C160.811 13.8122 160.958 14.1435 160.958 14.1581C160.958 14.1727 161.07 14.4307 161.208 14.7315C161.345 15.0324 161.562 15.5066 161.689 15.7853C161.816 16.0641 161.921 16.3041 161.921 16.3187C161.921 16.3333 162.067 16.6646 162.245 17.055C162.424 17.4453 162.603 17.8368 162.643 17.9251C162.683 18.0133 162.882 18.4594 163.084 18.9165C163.286 19.3735 163.52 19.8968 163.604 20.0793C163.688 20.2619 164.464 21.9992 165.33 23.94C166.195 25.8808 166.97 27.6139 167.051 27.7913C167.132 27.9687 167.35 28.4559 167.536 28.874C167.723 29.2921 167.98 29.8647 168.109 30.1464C168.237 30.4282 168.419 30.8432 168.513 31.0687C168.607 31.2942 168.714 31.513 168.751 31.5549C168.788 31.5968 168.818 31.7141 168.818 31.8155V32H164.938C161.929 32 161.04 31.9775 160.979 31.8997C160.936 31.8446 160.747 31.4206 160.559 30.9574C160.372 30.4943 160.154 29.971 160.075 29.7945C159.996 29.6181 159.563 28.5715 159.113 27.4688C158.663 26.366 158.261 25.4006 158.22 25.3234C158.15 25.1913 157.716 25.1831 150.859 25.1831C145.127 25.1831 143.556 25.2044 143.492 25.2833C143.447 25.3385 143.133 26.0693 142.794 26.9074C142.455 27.7454 142.129 28.5394 142.071 28.6717C141.929 28.9938 141.786 29.3352 141.199 30.7569L140.703 31.9599L136.88 31.9807C134.476 31.9938 133.039 31.9727 133.009 31.9238ZM155.664 19.2567C155.664 19.1078 155.508 18.7126 154.83 17.1431C154.768 16.9998 154.429 16.1787 154.076 15.3186C152.712 11.9937 151.811 9.81837 151.734 9.66454C151.689 9.57633 151.495 9.10848 151.302 8.6249C151.108 8.14131 150.915 7.73404 150.873 7.71986C150.83 7.70568 150.534 8.33592 150.214 9.1204C149.895 9.90489 149.584 10.655 149.523 10.7873C149.42 11.0112 148.521 13.1865 146.986 16.9226C146.633 17.7827 146.276 18.6378 146.192 18.8229C145.903 19.4626 145.474 19.4087 150.852 19.4087C155.522 19.4087 155.664 19.4043 155.664 19.2567Z" fill="white"/>
</svg>
