<svg width="26" height="19" viewBox="0 0 26 19" fill="none" xmlns="http://www.w3.org/2000/svg">
<path d="M0.991089 2.69206C0.991089 1.73787 1.76461 0.964355 2.71879 0.964355H23.4512C24.4054 0.964355 25.1789 1.73787 25.1789 2.69206C25.1789 3.64624 24.4054 4.41976 23.4512 4.41976H2.71879C1.76461 4.41976 0.991089 3.64624 0.991089 2.69206Z" fill="#345C7C"/>
<path d="M0.991089 9.60325C0.991089 8.64907 1.76461 7.87555 2.71879 7.87555H23.4512C24.4054 7.87555 25.1789 8.64907 25.1789 9.60325C25.1789 10.5574 24.4054 11.331 23.4512 11.331H2.71879C1.76461 11.331 0.991089 10.5574 0.991089 9.60325Z" fill="#345C7C"/>
<path d="M0.991089 16.5139C0.991089 15.5598 1.76461 14.7862 2.71879 14.7862H23.4512C24.4054 14.7862 25.1789 15.5598 25.1789 16.5139C25.1789 17.4681 24.4054 18.2417 23.4512 18.2417H2.71879C1.76461 18.2417 0.991089 17.4681 0.991089 16.5139Z" fill="#345C7C"/>
</svg>
