<svg width="42" height="42" viewBox="0 0 42 42" fill="none" xmlns="http://www.w3.org/2000/svg">
<path fill-rule="evenodd" clip-rule="evenodd" d="M21 42C32.5979 42 42 32.5979 42 21C42 9.4021 32.5979 0 21 0C9.4021 0 0 9.4021 0 21C0 32.5979 9.4021 42 21 42ZM30.5 25.875V17.488L21.301 22.5481C21.114 22.6509 20.8865 22.6509 20.699 22.5481L11.5 17.488V25.875C11.5 26.5713 11.7766 27.2388 12.2688 27.7312C12.7612 28.2234 13.4287 28.5 14.125 28.5H27.875C29.325 28.5 30.5 27.325 30.5 25.875ZM29.7085 14.2468C29.2183 13.7681 28.5603 13.5 27.875 13.5H14.125C13.4475 13.5 12.7964 13.7617 12.3074 14.2307C11.8186 14.6997 11.53 15.3396 11.502 16.0166L11.501 16.0615L21 21.2871L30.499 16.062C30.4827 15.377 30.199 14.7256 29.7085 14.2468Z" fill="white"/>
</svg>
