<svg width="42" height="42" viewBox="0 0 42 42" fill="none" xmlns="http://www.w3.org/2000/svg">
<path d="M17.6155 21C17.6155 22.8636 19.1364 24.3845 21 24.3845C22.8637 24.3845 24.3846 22.8636 24.3846 21C24.3846 19.1363 22.8637 17.6154 21 17.6154C19.1364 17.6154 17.6155 19.1363 17.6155 21Z" fill="white"/>
<path fill-rule="evenodd" clip-rule="evenodd" d="M28.15 28.15C28.5081 27.7945 28.7315 27.4492 28.9168 26.9871C29.3732 25.8385 29.3488 23.3321 29.3331 21.7113C29.3305 21.4475 29.3282 21.2072 29.3282 21C29.3282 20.7921 29.3305 20.5509 29.3331 20.2861C29.3489 18.6647 29.3734 16.1583 28.9194 15.0103C28.734 14.5482 28.5106 14.2054 28.1526 13.8474C27.7971 13.4894 27.4518 13.266 26.9897 13.0806C25.8417 12.6266 23.3353 12.6511 21.7139 12.6669C21.4491 12.6695 21.2079 12.6718 21 12.6718C20.7922 12.6718 20.551 12.6695 20.2862 12.6669C18.6648 12.6511 16.1584 12.6266 15.0104 13.0806C14.5483 13.266 14.2055 13.4919 13.8475 13.8474C13.4895 14.2029 13.2661 14.5482 13.0807 15.0103C12.6267 16.1583 12.6512 18.6647 12.667 20.2861C12.6696 20.5509 12.6719 20.7921 12.6719 21C12.6719 21.2078 12.6696 21.449 12.667 21.7138C12.6512 23.3347 12.6267 25.8394 13.0807 26.9896C13.2661 27.4517 13.4895 27.7945 13.8475 28.1525C14.203 28.5105 14.5483 28.7339 15.0104 28.9193C16.1584 29.3733 18.6648 29.3488 20.2862 29.333C20.551 29.3304 20.7922 29.3281 21 29.3281C21.2072 29.3281 21.4476 29.3304 21.7114 29.333C23.3321 29.3488 25.8386 29.3731 26.9872 28.9167C27.4493 28.7314 27.792 28.508 28.15 28.15ZM15.7924 21C15.7924 18.1181 18.1182 15.7923 21 15.7923C23.8819 15.7923 26.2077 18.1181 26.2077 21C26.2077 23.8818 23.8819 26.2076 21 26.2076C18.1182 26.2076 15.7924 23.8818 15.7924 21ZM25.2047 15.5816C25.2047 14.9087 25.7481 14.3654 26.4209 14.3654C26.5807 14.3652 26.739 14.3965 26.8866 14.4576C27.0343 14.5186 27.1684 14.6082 27.2814 14.7212C27.3944 14.8341 27.4839 14.9683 27.545 15.1159C27.606 15.2636 27.6374 15.4218 27.6372 15.5816C27.6372 16.257 27.0938 16.7978 26.4209 16.7978C25.7481 16.7978 25.2047 16.2544 25.2047 15.5816Z" fill="white"/>
<path fill-rule="evenodd" clip-rule="evenodd" d="M21 42C32.598 42 42 32.598 42 21C42 9.40202 32.598 0 21 0C9.40202 0 0 9.40202 0 21C0 32.598 9.40202 42 21 42ZM31.1516 20.4873C31.1514 20.658 31.1512 20.8289 31.1512 21C31.1512 21.1913 31.1515 21.3823 31.1518 21.5732C31.1536 22.7808 31.1554 23.9813 31.0852 25.1894C31.0065 26.8144 30.6383 28.2541 29.4475 29.4449C28.2592 30.6332 26.817 31.0039 25.192 31.0826C23.9638 31.1517 22.7433 31.1503 21.5153 31.149C21.3445 31.1488 21.1737 31.1486 21.0026 31.1486C20.8319 31.1486 20.6613 31.1488 20.4908 31.149C19.2644 31.1503 18.0437 31.1517 16.8131 31.0826C15.1881 31.0039 13.7485 30.6357 12.5577 29.4449C11.3694 28.2566 10.9987 26.8144 10.92 25.1894C10.8509 23.9611 10.8522 22.7386 10.8536 21.5117C10.8538 21.3412 10.854 21.1707 10.854 21C10.854 20.8292 10.8538 20.6587 10.8536 20.4882C10.8522 19.2618 10.8509 18.041 10.92 16.8105C10.9987 15.1855 11.3668 13.7459 12.5577 12.555C13.7459 11.3668 15.1881 10.996 16.8131 10.9173C18.0414 10.8482 19.2618 10.8496 20.4899 10.8509C20.6606 10.8511 20.8315 10.8513 21.0026 10.8513C21.1733 10.8513 21.3439 10.8511 21.5143 10.8509C22.7408 10.8496 23.9615 10.8482 25.192 10.9173C26.817 10.996 28.2567 11.3642 29.4475 12.555C30.6358 13.7433 31.0065 15.1855 31.0852 16.8105C31.1543 18.0388 31.153 19.2592 31.1516 20.4873Z" fill="white"/>
</svg>
