<svg width="43" height="42" viewBox="0 0 43 42" fill="none" xmlns="http://www.w3.org/2000/svg">
<path fill-rule="evenodd" clip-rule="evenodd" d="M21.5 42C33.098 42 42.5 32.598 42.5 21C42.5 9.40202 33.098 0 21.5 0C9.90202 0 0.5 9.40202 0.5 21C0.5 32.598 9.90202 42 21.5 42ZM12.6089 8.46289C12.9496 8.32206 13.3146 8.24972 13.6832 8.25C14.0517 8.25 14.4166 8.32262 14.7571 8.46372C15.0976 8.60482 15.4069 8.81162 15.6674 9.07232C15.9279 9.33301 16.1344 9.64248 16.2753 9.98305C16.4161 10.3236 16.4885 10.6886 16.4882 11.0571C16.4882 12.6063 15.2302 13.8919 13.68 13.8919C12.1319 13.8919 10.875 12.6062 10.875 11.055C10.8751 10.6864 10.9479 10.3215 11.0891 9.981C11.2303 9.64054 11.4372 9.33123 11.698 9.07075C11.9588 8.81027 12.2683 8.60371 12.6089 8.46289ZM23.0268 18.1461C23.6749 16.92 25.0233 15.6875 27.3809 15.6875C32.2854 15.6875 33.1875 18.858 33.1875 23.0527V31.625H28.3457V24.0281C28.3457 22.2176 28.3096 19.8961 25.8265 19.8961C23.3073 19.8961 23.1543 21.8638 23.1543 23.8996V31.625H18.3125V16.0179H22.9588V18.1461H23.0268ZM11.2607 31.625V16.0169H16.1057V31.625H11.2607Z" fill="white"/>
</svg>
