<svg width="436" height="760" viewBox="0 0 436 760" fill="none" xmlns="http://www.w3.org/2000/svg">
<g clip-path="url(#clip0)">
<circle cx="278" cy="780.794" r="168" transform="rotate(-90 278 780.794)" fill="url(#paint0_linear)"/>
<circle cx="-13.4699" cy="772.53" r="78" transform="rotate(15 -13.4699 772.53)" fill="url(#paint1_linear)"/>
<circle cx="199" cy="97" r="247" fill="url(#paint2_linear)"/>
<circle cx="362.361" cy="440.362" r="49.2848" transform="rotate(142.875 362.361 440.362)" fill="url(#paint3_linear)"/>
</g>
<defs>
<linearGradient id="paint0_linear" x1="165.537" y1="667.637" x2="361.306" y2="948.794" gradientUnits="userSpaceOnUse">
<stop stop-color="#CF768E"/>
<stop offset="1" stop-color="#CF768E" stop-opacity="0"/>
</linearGradient>
<linearGradient id="paint1_linear" x1="-65.6848" y1="719.993" x2="25.2078" y2="850.53" gradientUnits="userSpaceOnUse">
<stop stop-color="#CF768E"/>
<stop offset="1" stop-color="#CF768E" stop-opacity="0"/>
</linearGradient>
<linearGradient id="paint2_linear" x1="271.042" y1="-74.2827" x2="55.6518" y2="310.185" gradientUnits="userSpaceOnUse">
<stop stop-color="#CF768E"/>
<stop offset="1" stop-color="#CF768E" stop-opacity="0"/>
</linearGradient>
<linearGradient id="paint3_linear" x1="395.563" y1="388.815" x2="333.759" y2="482.899" gradientUnits="userSpaceOnUse">
<stop stop-color="#CF768E"/>
<stop offset="1" stop-color="#CF768E" stop-opacity="0"/>
</linearGradient>
<clipPath id="clip0">
<path d="M0 30C0 13.4315 13.4315 0 30 0H406C422.569 0 436 13.4315 436 30V730C436 746.569 422.569 760 406 760H30C13.4315 760 0 746.569 0 730V30Z" fill="white"/>
</clipPath>
</defs>
</svg>
