<svg width="42" height="42" viewBox="0 0 42 42" fill="none" xmlns="http://www.w3.org/2000/svg">
<path fill-rule="evenodd" clip-rule="evenodd" d="M20.989 30.785H20.993C26.441 30.785 30.875 26.35 30.877 20.9C30.8811 19.6011 30.6277 18.3143 30.1313 17.1139C29.6349 15.9136 28.9054 14.8236 27.985 13.907C26.119 12.039 23.637 11.009 20.997 11.009C15.544 11.009 11.11 15.443 11.108 20.893C11.1053 22.7538 11.6291 24.5774 12.619 26.153L12.854 26.527L11.855 30.175L15.597 29.193L15.957 29.407C17.4804 30.3094 19.2184 30.7854 20.989 30.785ZM24.384 22.415C24.656 22.515 26.117 23.233 26.415 23.382H26.414C26.4724 23.4112 26.5269 23.4375 26.5774 23.4619C26.7848 23.562 26.9245 23.6293 26.984 23.729C27.058 23.853 27.058 24.448 26.811 25.142C26.563 25.836 25.375 26.47 24.805 26.555C24.293 26.632 23.645 26.664 22.933 26.437C22.502 26.301 21.949 26.118 21.239 25.812C18.458 24.6114 16.5778 21.9181 16.217 21.4014C16.1911 21.3642 16.173 21.3383 16.163 21.325L16.1606 21.3218C16.0028 21.1111 14.95 19.7053 14.95 18.251C14.95 16.8792 15.6244 16.1616 15.9335 15.8326C15.954 15.8107 15.973 15.7906 15.99 15.772C16.262 15.474 16.584 15.4 16.782 15.4C16.98 15.4 17.178 15.402 17.352 15.41C17.3736 15.4112 17.3962 15.4112 17.4195 15.4111C17.5922 15.4106 17.8077 15.4099 18.02 15.92C18.1063 16.127 18.2344 16.4389 18.3679 16.764C18.6183 17.3737 18.8877 18.0299 18.936 18.127C19.011 18.276 19.061 18.449 18.961 18.647C18.946 18.6771 18.9322 18.7054 18.9191 18.7325C18.8449 18.8846 18.7905 18.9963 18.664 19.144C18.6128 19.2035 18.5599 19.2679 18.507 19.3321C18.4063 19.4547 18.3059 19.5768 18.218 19.664C18.069 19.812 17.915 19.973 18.088 20.27C18.261 20.568 18.858 21.541 19.741 22.329C20.6866 23.1722 21.5094 23.5301 21.9294 23.7128C22.0135 23.7494 22.0814 23.779 22.131 23.804C22.428 23.952 22.601 23.928 22.775 23.729C22.948 23.531 23.517 22.861 23.715 22.565C23.914 22.267 24.112 22.316 24.384 22.415Z" fill="white"/>
<path fill-rule="evenodd" clip-rule="evenodd" d="M21 42C32.598 42 42 32.598 42 21C42 9.40202 32.598 0 21 0C9.40202 0 0 9.40202 0 21C0 32.598 9.40202 42 21 42ZM25.5481 9.90084C26.9922 10.4996 28.3032 11.379 29.405 12.488C30.5124 13.5907 31.3901 14.902 31.9874 16.3461C32.5848 17.7901 32.8898 19.3383 32.885 20.901C32.883 27.459 27.547 32.794 20.993 32.794H20.988C19.0021 32.794 17.0479 32.2962 15.304 31.346L9 33L10.687 26.837C9.646 25.034 9.099 22.988 9.1 20.892C9.102 14.335 14.438 9.00004 20.992 9.00004C22.5553 8.99592 24.1039 9.3021 25.5481 9.90084Z" fill="white"/>
</svg>
